<svg xmlns="http://www.w3.org/2000/svg" xmlns:xlink="http://www.w3.org/1999/xlink" width="500" zoomAndPan="magnify" viewBox="0 0 375 74.999997" height="100" preserveAspectRatio="xMidYMid meet" version="1.0"><defs><g/></defs><rect x="-37.5" width="450" fill="#ffffff" y="-7.5" height="89.999996" fill-opacity="1"/><rect x="-37.5" width="450" fill="#ffffff" y="-7.5" height="89.999996" fill-opacity="1"/><rect x="-37.5" width="450" fill="#000000" y="-7.5" height="89.999996" fill-opacity="1"/><g fill="#ff3131" fill-opacity="1"><g transform="translate(60.768385, 39.575415)"><g><path d="M 18.640625 1.257812 C 28.261719 1.257812 34.109375 -3.445312 34.109375 -10.988281 C 34.109375 -17.492188 29.574219 -20.71875 23.507812 -22.195312 L 15.742188 -24.105469 C 12.738281 -24.871094 11.207031 -26.347656 11.207031 -28.480469 C 11.207031 -31.105469 13.503906 -33.183594 17.65625 -33.183594 C 21.921875 -33.183594 25.089844 -30.941406 25.582031 -27.003906 L 33.453125 -27.003906 C 32.964844 -34.65625 27.003906 -39.796875 17.601562 -39.796875 C 7.597656 -39.796875 3.0625 -33.835938 3.0625 -27.605469 C 3.0625 -22.140625 6.558594 -18.3125 12.628906 -16.78125 L 19.789062 -14.976562 C 23.507812 -14.050781 25.746094 -13.011719 25.746094 -10.222656 C 25.746094 -7.160156 23.015625 -5.355469 18.585938 -5.355469 C 13.449219 -5.355469 10.277344 -7.761719 10.058594 -12.082031 L 2.132812 -12.082031 C 2.351562 -3.664062 8.746094 1.257812 18.640625 1.257812 Z M 18.640625 1.257812 "/></g></g></g><g fill="#ffffff" fill-opacity="1"><g transform="translate(105.479322, 39.575415)"><g><path d="M 20.28125 1.257812 C 30.667969 1.257812 38.867188 -6.886719 38.867188 -19.515625 C 38.867188 -32.089844 30.667969 -39.851562 20.28125 -39.851562 C 9.894531 -39.851562 1.914062 -32.089844 1.914062 -19.515625 C 1.914062 -6.832031 9.894531 1.257812 20.28125 1.257812 Z M 20.28125 -5.738281 C 13.886719 -5.738281 10.003906 -11.261719 10.003906 -19.515625 C 10.003906 -27.441406 13.886719 -32.855469 20.28125 -32.855469 C 26.675781 -32.855469 30.777344 -27.496094 30.777344 -19.515625 C 30.777344 -11.261719 26.675781 -5.738281 20.28125 -5.738281 Z M 20.28125 -5.738281 "/></g></g></g><g fill="#ffffff" fill-opacity="1"><g transform="translate(154.731988, 39.575415)"><g><path d="M 20.007812 1.257812 C 29.464844 1.257812 35.804688 -3.828125 36.460938 -12.738281 L 28.808594 -12.738281 C 28.207031 -9.019531 25.691406 -5.738281 20.5 -5.738281 C 13.722656 -5.738281 10.003906 -11.261719 10.003906 -19.460938 C 10.003906 -27.386719 13.722656 -32.800781 20.5 -32.800781 C 25.308594 -32.800781 28.152344 -30.121094 28.808594 -26.019531 L 36.515625 -26.019531 C 35.804688 -34.546875 29.628906 -39.796875 20.117188 -39.796875 C 9.730469 -39.796875 1.914062 -32.035156 1.914062 -19.460938 C 1.914062 -6.832031 9.621094 1.257812 20.007812 1.257812 Z M 20.007812 1.257812 "/></g></g></g><g fill="#ffffff" fill-opacity="1"><g transform="translate(201.087461, 39.575415)"><g><path d="M 37.9375 0 L 24.488281 -38.921875 L 15.140625 -38.921875 L 1.367188 0 L 9.949219 0 L 12.574219 -8.089844 L 26.675781 -8.089844 L 29.300781 0 Z M 16.34375 -19.570312 L 19.679688 -30.777344 L 22.960938 -19.570312 L 24.542969 -14.757812 L 14.757812 -14.757812 Z M 16.34375 -19.570312 "/></g></g></g><g fill="#ffffff" fill-opacity="1"><g transform="translate(248.864194, 39.575415)"><g><path d="M 26.839844 -23.886719 L 11.644531 -23.886719 L 11.644531 -38.921875 L 3.554688 -38.921875 L 3.554688 0 L 11.644531 0 L 11.644531 -16.671875 L 26.839844 -16.671875 L 26.839844 0 L 34.929688 0 L 34.929688 -38.921875 L 26.839844 -38.921875 Z M 26.839844 -23.886719 "/></g></g></g></svg>