<?xml version="1.0" encoding="UTF-8"?>
<!DOCTYPE svg PUBLIC "-//W3C//DTD SVG 1.1//EN" "http://www.w3.org/Graphics/SVG/1.1/DTD/svg11.dtd">
<svg version="1.2" width="27.69mm" height="11.68mm" viewBox="0 0 2769 1168" preserveAspectRatio="xMidYMid" fill-rule="evenodd" stroke-width="28.222" stroke-linejoin="round" xmlns="http://www.w3.org/2000/svg" xmlns:ooo="http://xml.openoffice.org/svg/export" xmlns:xlink="http://www.w3.org/1999/xlink" xmlns:presentation="http://sun.com/xmlns/staroffice/presentation" xmlns:smil="http://www.w3.org/2001/SMIL20/" xmlns:anim="urn:oasis:names:tc:opendocument:xmlns:animation:1.0" xml:space="preserve">
 <defs class="ClipPathGroup">
  <clipPath id="presentation_clip_path" clipPathUnits="userSpaceOnUse">
   <rect x="0" y="0" width="2769" height="1168"/>
  </clipPath>
  <clipPath id="presentation_clip_path_shrink" clipPathUnits="userSpaceOnUse">
   <rect x="2" y="1" width="2764" height="1166"/>
  </clipPath>
 </defs>
 <defs class="TextShapeIndex">
  <g ooo:slide="id1" ooo:id-list="id3"/>
 </defs>
 <defs class="EmbeddedBulletChars">
  <g id="bullet-char-template-57356" transform="scale(0.00048828125,-0.00048828125)">
   <path d="M 580,1141 L 1163,571 580,0 -4,571 580,1141 Z"/>
  </g>
  <g id="bullet-char-template-57354" transform="scale(0.00048828125,-0.00048828125)">
   <path d="M 8,1128 L 1137,1128 1137,0 8,0 8,1128 Z"/>
  </g>
  <g id="bullet-char-template-10146" transform="scale(0.00048828125,-0.00048828125)">
   <path d="M 174,0 L 602,739 174,1481 1456,739 174,0 Z M 1358,739 L 309,1346 659,739 1358,739 Z"/>
  </g>
  <g id="bullet-char-template-10132" transform="scale(0.00048828125,-0.00048828125)">
   <path d="M 2015,739 L 1276,0 717,0 1260,543 174,543 174,936 1260,936 717,1481 1274,1481 2015,739 Z"/>
  </g>
  <g id="bullet-char-template-10007" transform="scale(0.00048828125,-0.00048828125)">
   <path d="M 0,-2 C -7,14 -16,27 -25,37 L 356,567 C 262,823 215,952 215,954 215,979 228,992 255,992 264,992 276,990 289,987 310,991 331,999 354,1012 L 381,999 492,748 772,1049 836,1024 860,1049 C 881,1039 901,1025 922,1006 886,937 835,863 770,784 769,783 710,716 594,584 L 774,223 C 774,196 753,168 711,139 L 727,119 C 717,90 699,76 672,76 641,76 570,178 457,381 L 164,-76 C 142,-110 111,-127 72,-127 30,-127 9,-110 8,-76 1,-67 -2,-52 -2,-32 -2,-23 -1,-13 0,-2 Z"/>
  </g>
  <g id="bullet-char-template-10004" transform="scale(0.00048828125,-0.00048828125)">
   <path d="M 285,-33 C 182,-33 111,30 74,156 52,228 41,333 41,471 41,549 55,616 82,672 116,743 169,778 240,778 293,778 328,747 346,684 L 369,508 C 377,444 397,411 428,410 L 1163,1116 C 1174,1127 1196,1133 1229,1133 1271,1133 1292,1118 1292,1087 L 1292,965 C 1292,929 1282,901 1262,881 L 442,47 C 390,-6 338,-33 285,-33 Z"/>
  </g>
  <g id="bullet-char-template-9679" transform="scale(0.00048828125,-0.00048828125)">
   <path d="M 813,0 C 632,0 489,54 383,161 276,268 223,411 223,592 223,773 276,916 383,1023 489,1130 632,1184 813,1184 992,1184 1136,1130 1245,1023 1353,916 1407,772 1407,592 1407,412 1353,268 1245,161 1136,54 992,0 813,0 Z"/>
  </g>
  <g id="bullet-char-template-8226" transform="scale(0.00048828125,-0.00048828125)">
   <path d="M 346,457 C 273,457 209,483 155,535 101,586 74,649 74,723 74,796 101,859 155,911 209,963 273,989 346,989 419,989 480,963 531,910 582,859 608,796 608,723 608,648 583,586 532,535 482,483 420,457 346,457 Z"/>
  </g>
  <g id="bullet-char-template-8211" transform="scale(0.00048828125,-0.00048828125)">
   <path d="M -4,459 L 1135,459 1135,606 -4,606 -4,459 Z"/>
  </g>
  <g id="bullet-char-template-61548" transform="scale(0.00048828125,-0.00048828125)">
   <path d="M 173,740 C 173,903 231,1043 346,1159 462,1274 601,1332 765,1332 928,1332 1067,1274 1183,1159 1299,1043 1357,903 1357,740 1357,577 1299,437 1183,322 1067,206 928,148 765,148 601,148 462,206 346,322 231,437 173,577 173,740 Z"/>
  </g>
 </defs>
 <g>
  <g id="id2" class="Master_Slide">
   <g id="bg-id2" class="Background"/>
   <g id="bo-id2" class="BackgroundObjects"/>
  </g>
 </g>
 <g class="SlideGroup">
  <g>
   <g id="container-id1">
    <g id="id1" class="Slide" clip-path="url(#presentation_clip_path)">
     <g class="Page">
      <g class="Graphic">
       <g id="id3">
        <rect class="BoundingBox" stroke="none" fill="none" x="0" y="265" width="2778" height="1085"/>
        <path fill="rgb(255,255,255)" stroke="none" d="M 426,914 L 258,914 C 252,914 247,912 244,908 240,905 238,900 238,894 L 238,527 C 238,522 236,517 233,513 229,509 224,507 218,507 L 157,507 C 151,507 146,509 143,513 139,517 137,522 137,527 L 137,995 C 137,1001 139,1006 143,1009 146,1014 151,1015 157,1015 L 426,1015 C 432,1015 436,1014 440,1009 444,1006 446,1001 446,995 L 446,934 C 446,928 444,924 440,919 436,916 432,914 426,914 L 426,914 Z"/>
        <path fill="rgb(255,255,255)" stroke="none" d="M 656,608 L 831,608 C 836,608 840,607 843,604 846,601 848,597 848,592 L 848,524 C 848,519 846,515 843,512 840,509 836,507 831,507 L 555,507 C 550,507 546,509 543,512 540,515 539,519 539,524 L 539,999 C 539,1004 540,1007 543,1011 546,1014 550,1015 555,1015 L 831,1015 C 836,1015 840,1014 843,1011 846,1007 848,1004 848,999 L 848,930 C 848,926 846,922 843,919 840,916 836,914 831,914 L 656,914 C 652,914 647,912 644,909 641,906 640,903 640,898 L 640,828 C 640,824 641,820 644,817 647,814 652,812 656,812 L 726,812 C 730,812 734,810 738,807 741,804 743,800 743,795 L 743,727 C 743,722 741,718 738,715 734,712 730,710 726,710 L 656,710 C 652,710 647,709 644,706 641,703 640,699 640,694 L 640,625 C 640,620 641,616 644,613 647,610 652,608 656,608 L 656,608 Z"/>
        <path fill="rgb(255,255,255)" stroke="none" d="M 1339,992 L 1203,521 C 1201,517 1199,514 1196,511 1192,508 1188,507 1184,507 L 1096,507 C 1091,507 1087,508 1084,511 1080,514 1078,517 1077,521 L 941,992 C 939,998 939,1003 944,1008 947,1013 952,1015 958,1015 L 1025,1015 C 1029,1015 1033,1014 1037,1012 1040,1009 1042,1005 1044,1001 L 1066,923 C 1067,919 1070,916 1073,913 1076,911 1080,909 1085,909 L 1195,909 C 1199,909 1203,911 1207,913 1210,916 1212,919 1214,923 L 1236,1001 C 1237,1005 1240,1009 1243,1012 1247,1014 1251,1015 1255,1015 L 1322,1015 C 1328,1015 1332,1013 1336,1008 1340,1003 1341,998 1339,992 L 1339,992 Z M 1173,808 L 1106,808 C 1104,808 1103,807 1102,806 1101,805 1101,803 1101,801 L 1135,685 C 1135,683 1137,681 1140,681 1143,681 1144,683 1145,685 L 1178,801 C 1179,803 1178,805 1177,806 1176,807 1175,808 1173,808 L 1173,808 Z"/>
        <path fill="rgb(255,255,255)" stroke="none" d="M 1780,507 L 1716,507 C 1711,507 1707,508 1704,511 1700,514 1698,517 1697,521 L 1607,832 C 1606,836 1603,837 1600,837 1597,837 1595,836 1594,832 L 1504,521 C 1503,517 1501,514 1497,511 1493,508 1489,507 1485,507 L 1421,507 C 1414,507 1409,510 1405,515 1401,520 1400,526 1402,532 L 1537,1001 C 1538,1005 1541,1008 1545,1011 1548,1014 1552,1015 1556,1015 L 1645,1015 C 1649,1015 1653,1014 1657,1011 1660,1008 1662,1005 1664,1001 L 1799,532 C 1801,526 1800,520 1796,515 1792,510 1787,507 1780,507 L 1780,507 Z"/>
        <path fill="rgb(255,255,255)" stroke="none" d="M 2010,608 L 2185,608 C 2189,608 2193,607 2196,604 2199,601 2201,597 2201,592 L 2201,524 C 2201,519 2199,515 2196,512 2193,509 2189,507 2185,507 L 1908,507 C 1903,507 1900,509 1896,512 1893,515 1892,519 1892,524 L 1892,999 C 1892,1004 1893,1007 1896,1011 1900,1014 1903,1015 1908,1015 L 2185,1015 C 2189,1015 2193,1014 2196,1011 2199,1007 2201,1004 2201,999 L 2201,930 C 2201,926 2199,922 2196,919 2193,916 2189,914 2185,914 L 2010,914 C 2005,914 2001,912 1998,909 1995,906 1993,903 1993,898 L 1993,828 C 1993,824 1995,820 1998,817 2001,814 2005,812 2010,812 L 2079,812 C 2084,812 2088,810 2091,807 2094,804 2096,800 2096,795 L 2096,727 C 2096,722 2094,718 2091,715 2088,712 2084,710 2079,710 L 2010,710 C 2005,710 2001,709 1998,706 1995,703 1993,699 1993,694 L 1993,625 C 1993,620 1995,616 1998,613 2001,610 2005,608 2010,608 L 2010,608 Z"/>
        <path fill="rgb(255,255,255)" stroke="none" d="M 2504,714 C 2492,709 2480,704 2468,699 2457,693 2446,688 2437,682 2427,676 2420,670 2414,664 2407,658 2405,651 2405,645 2405,639 2407,634 2412,629 2417,624 2423,620 2431,616 2438,613 2446,611 2456,608 2465,606 2475,605 2485,605 2496,605 2507,607 2518,609 2528,611 2536,615 2543,620 2549,624 2553,628 2556,633 2560,641 2567,645 2577,645 L 2639,645 C 2645,645 2650,643 2654,638 2658,634 2659,628 2658,622 2655,604 2649,588 2638,573 2628,558 2614,546 2598,534 2582,525 2565,517 2546,512 2526,507 2506,504 2485,504 2463,504 2442,507 2422,512 2402,517 2384,525 2369,535 2347,548 2331,564 2320,583 2309,602 2304,622 2304,645 2304,688 2324,725 2365,755 2379,766 2394,775 2411,783 2428,792 2445,800 2463,807 2473,812 2484,817 2496,822 2507,827 2518,833 2527,838 2536,844 2543,849 2549,855 2555,861 2558,867 2558,872 2558,880 2556,886 2551,891 2546,896 2539,901 2531,904 2524,907 2515,910 2506,911 2497,913 2489,914 2481,914 2474,914 2467,913 2460,912 2453,911 2445,910 2439,907 2432,905 2425,902 2420,898 2415,895 2411,890 2408,885 2406,882 2403,878 2399,876 2395,874 2391,872 2387,872 L 2325,872 C 2319,872 2314,875 2310,880 2306,884 2305,889 2306,895 2309,913 2315,930 2326,945 2336,960 2349,973 2367,984 2382,994 2399,1002 2419,1007 2438,1012 2459,1015 2481,1015 2506,1015 2530,1012 2552,1004 2574,997 2593,987 2609,975 2625,962 2637,947 2646,930 2656,912 2660,893 2660,872 2660,850 2655,831 2645,815 2636,798 2623,784 2608,772 2593,759 2576,749 2557,739 2539,731 2521,722 2504,714 L 2504,714 Z"/>
       </g>
      </g>
     </g>
    </g>
   </g>
  </g>
 </g>
</svg>