<?xml version="1.0" encoding="UTF-8"?>
<!DOCTYPE svg PUBLIC "-//W3C//DTD SVG 1.1//EN" "http://www.w3.org/Graphics/SVG/1.1/DTD/svg11.dtd">
<svg version="1.2" width="27.69mm" height="8.64mm" viewBox="0 0 2769 864" preserveAspectRatio="xMidYMid" fill-rule="evenodd" stroke-width="28.222" stroke-linejoin="round" xmlns="http://www.w3.org/2000/svg" xmlns:ooo="http://xml.openoffice.org/svg/export" xmlns:xlink="http://www.w3.org/1999/xlink" xmlns:presentation="http://sun.com/xmlns/staroffice/presentation" xmlns:smil="http://www.w3.org/2001/SMIL20/" xmlns:anim="urn:oasis:names:tc:opendocument:xmlns:animation:1.0" xml:space="preserve">
 <defs class="ClipPathGroup">
  <clipPath id="presentation_clip_path" clipPathUnits="userSpaceOnUse">
   <rect x="0" y="0" width="2769" height="864"/>
  </clipPath>
  <clipPath id="presentation_clip_path_shrink" clipPathUnits="userSpaceOnUse">
   <rect x="2" y="0" width="2764" height="863"/>
  </clipPath>
 </defs>
 <defs class="TextShapeIndex">
  <g ooo:slide="id1" ooo:id-list="id3"/>
 </defs>
 <defs class="EmbeddedBulletChars">
  <g id="bullet-char-template-57356" transform="scale(0.00048828125,-0.00048828125)">
   <path d="M 580,1141 L 1163,571 580,0 -4,571 580,1141 Z"/>
  </g>
  <g id="bullet-char-template-57354" transform="scale(0.00048828125,-0.00048828125)">
   <path d="M 8,1128 L 1137,1128 1137,0 8,0 8,1128 Z"/>
  </g>
  <g id="bullet-char-template-10146" transform="scale(0.00048828125,-0.00048828125)">
   <path d="M 174,0 L 602,739 174,1481 1456,739 174,0 Z M 1358,739 L 309,1346 659,739 1358,739 Z"/>
  </g>
  <g id="bullet-char-template-10132" transform="scale(0.00048828125,-0.00048828125)">
   <path d="M 2015,739 L 1276,0 717,0 1260,543 174,543 174,936 1260,936 717,1481 1274,1481 2015,739 Z"/>
  </g>
  <g id="bullet-char-template-10007" transform="scale(0.00048828125,-0.00048828125)">
   <path d="M 0,-2 C -7,14 -16,27 -25,37 L 356,567 C 262,823 215,952 215,954 215,979 228,992 255,992 264,992 276,990 289,987 310,991 331,999 354,1012 L 381,999 492,748 772,1049 836,1024 860,1049 C 881,1039 901,1025 922,1006 886,937 835,863 770,784 769,783 710,716 594,584 L 774,223 C 774,196 753,168 711,139 L 727,119 C 717,90 699,76 672,76 641,76 570,178 457,381 L 164,-76 C 142,-110 111,-127 72,-127 30,-127 9,-110 8,-76 1,-67 -2,-52 -2,-32 -2,-23 -1,-13 0,-2 Z"/>
  </g>
  <g id="bullet-char-template-10004" transform="scale(0.00048828125,-0.00048828125)">
   <path d="M 285,-33 C 182,-33 111,30 74,156 52,228 41,333 41,471 41,549 55,616 82,672 116,743 169,778 240,778 293,778 328,747 346,684 L 369,508 C 377,444 397,411 428,410 L 1163,1116 C 1174,1127 1196,1133 1229,1133 1271,1133 1292,1118 1292,1087 L 1292,965 C 1292,929 1282,901 1262,881 L 442,47 C 390,-6 338,-33 285,-33 Z"/>
  </g>
  <g id="bullet-char-template-9679" transform="scale(0.00048828125,-0.00048828125)">
   <path d="M 813,0 C 632,0 489,54 383,161 276,268 223,411 223,592 223,773 276,916 383,1023 489,1130 632,1184 813,1184 992,1184 1136,1130 1245,1023 1353,916 1407,772 1407,592 1407,412 1353,268 1245,161 1136,54 992,0 813,0 Z"/>
  </g>
  <g id="bullet-char-template-8226" transform="scale(0.00048828125,-0.00048828125)">
   <path d="M 346,457 C 273,457 209,483 155,535 101,586 74,649 74,723 74,796 101,859 155,911 209,963 273,989 346,989 419,989 480,963 531,910 582,859 608,796 608,723 608,648 583,586 532,535 482,483 420,457 346,457 Z"/>
  </g>
  <g id="bullet-char-template-8211" transform="scale(0.00048828125,-0.00048828125)">
   <path d="M -4,459 L 1135,459 1135,606 -4,606 -4,459 Z"/>
  </g>
  <g id="bullet-char-template-61548" transform="scale(0.00048828125,-0.00048828125)">
   <path d="M 173,740 C 173,903 231,1043 346,1159 462,1274 601,1332 765,1332 928,1332 1067,1274 1183,1159 1299,1043 1357,903 1357,740 1357,577 1299,437 1183,322 1067,206 928,148 765,148 601,148 462,206 346,322 231,437 173,577 173,740 Z"/>
  </g>
 </defs>
 <g>
  <g id="id2" class="Master_Slide">
   <g id="bg-id2" class="Background"/>
   <g id="bo-id2" class="BackgroundObjects"/>
  </g>
 </g>
 <g class="SlideGroup">
  <g>
   <g id="container-id1">
    <g id="id1" class="Slide" clip-path="url(#presentation_clip_path)">
     <g class="Page">
      <g class="Graphic">
       <g id="id3">
        <rect class="BoundingBox" stroke="none" fill="none" x="0" y="0" width="2778" height="1085"/>
        <path fill="rgb(0,0,0)" stroke="none" d="M 426,649 L 258,649 C 252,649 247,647 244,643 240,640 238,635 238,629 L 238,262 C 238,257 236,252 233,248 229,244 224,242 218,242 L 157,242 C 151,242 146,244 143,248 139,252 137,257 137,262 L 137,730 C 137,736 139,741 143,744 146,749 151,750 157,750 L 426,750 C 432,750 436,749 440,744 444,741 446,736 446,730 L 446,669 C 446,663 444,659 440,654 436,651 432,649 426,649 L 426,649 Z"/>
        <path fill="rgb(0,0,0)" stroke="none" d="M 656,343 L 831,343 C 836,343 840,342 843,339 846,336 848,332 848,327 L 848,259 C 848,254 846,250 843,247 840,244 836,242 831,242 L 555,242 C 550,242 546,244 543,247 540,250 539,254 539,259 L 539,734 C 539,739 540,742 543,746 546,749 550,750 555,750 L 831,750 C 836,750 840,749 843,746 846,742 848,739 848,734 L 848,665 C 848,661 846,657 843,654 840,651 836,649 831,649 L 656,649 C 652,649 647,647 644,644 641,641 640,638 640,633 L 640,563 C 640,559 641,555 644,552 647,549 652,547 656,547 L 726,547 C 730,547 734,545 738,542 741,539 743,535 743,530 L 743,462 C 743,457 741,453 738,450 734,447 730,445 726,445 L 656,445 C 652,445 647,444 644,441 641,438 640,434 640,429 L 640,360 C 640,355 641,351 644,348 647,345 652,343 656,343 L 656,343 Z"/>
        <path fill="rgb(0,0,0)" stroke="none" d="M 1339,727 L 1203,256 C 1201,252 1199,249 1196,246 1192,243 1188,242 1184,242 L 1096,242 C 1091,242 1087,243 1084,246 1080,249 1078,252 1077,256 L 941,727 C 939,733 939,738 944,743 947,748 952,750 958,750 L 1025,750 C 1029,750 1033,749 1037,747 1040,744 1042,740 1044,736 L 1066,658 C 1067,654 1070,651 1073,648 1076,646 1080,644 1085,644 L 1195,644 C 1199,644 1203,646 1207,648 1210,651 1212,654 1214,658 L 1236,736 C 1237,740 1240,744 1243,747 1247,749 1251,750 1255,750 L 1322,750 C 1328,750 1332,748 1336,743 1340,738 1341,733 1339,727 L 1339,727 Z M 1173,543 L 1106,543 C 1104,543 1103,542 1102,541 1101,540 1101,538 1101,536 L 1135,420 C 1135,418 1137,416 1140,416 1143,416 1144,418 1145,420 L 1178,536 C 1179,538 1178,540 1177,541 1176,542 1175,543 1173,543 L 1173,543 Z"/>
        <path fill="rgb(0,0,0)" stroke="none" d="M 1780,242 L 1716,242 C 1711,242 1707,243 1704,246 1700,249 1698,252 1697,256 L 1607,567 C 1606,571 1603,572 1600,572 1597,572 1595,571 1594,567 L 1504,256 C 1503,252 1501,249 1497,246 1493,243 1489,242 1485,242 L 1421,242 C 1414,242 1409,245 1405,250 1401,255 1400,261 1402,267 L 1537,736 C 1538,740 1541,743 1545,746 1548,749 1552,750 1556,750 L 1645,750 C 1649,750 1653,749 1657,746 1660,743 1662,740 1664,736 L 1799,267 C 1801,261 1800,255 1796,250 1792,245 1787,242 1780,242 L 1780,242 Z"/>
        <path fill="rgb(0,0,0)" stroke="none" d="M 2010,343 L 2185,343 C 2189,343 2193,342 2196,339 2199,336 2201,332 2201,327 L 2201,259 C 2201,254 2199,250 2196,247 2193,244 2189,242 2185,242 L 1908,242 C 1903,242 1900,244 1896,247 1893,250 1892,254 1892,259 L 1892,734 C 1892,739 1893,742 1896,746 1900,749 1903,750 1908,750 L 2185,750 C 2189,750 2193,749 2196,746 2199,742 2201,739 2201,734 L 2201,665 C 2201,661 2199,657 2196,654 2193,651 2189,649 2185,649 L 2010,649 C 2005,649 2001,647 1998,644 1995,641 1993,638 1993,633 L 1993,563 C 1993,559 1995,555 1998,552 2001,549 2005,547 2010,547 L 2079,547 C 2084,547 2088,545 2091,542 2094,539 2096,535 2096,530 L 2096,462 C 2096,457 2094,453 2091,450 2088,447 2084,445 2079,445 L 2010,445 C 2005,445 2001,444 1998,441 1995,438 1993,434 1993,429 L 1993,360 C 1993,355 1995,351 1998,348 2001,345 2005,343 2010,343 L 2010,343 Z"/>
        <path fill="rgb(0,0,0)" stroke="none" d="M 2504,449 C 2492,444 2480,439 2468,434 2457,428 2446,423 2437,417 2427,411 2420,405 2414,399 2407,393 2405,386 2405,380 2405,374 2407,369 2412,364 2417,359 2423,355 2431,351 2438,348 2446,346 2456,343 2465,341 2475,340 2485,340 2496,340 2507,342 2518,344 2528,346 2536,350 2543,355 2549,359 2553,363 2556,368 2560,376 2567,380 2577,380 L 2639,380 C 2645,380 2650,378 2654,373 2658,369 2659,363 2658,357 2655,339 2649,323 2638,308 2628,293 2614,281 2598,269 2582,260 2565,252 2546,247 2526,242 2506,239 2485,239 2463,239 2442,242 2422,247 2402,252 2384,260 2369,270 2347,283 2331,299 2320,318 2309,337 2304,357 2304,380 2304,423 2324,460 2365,490 2379,501 2394,510 2411,518 2428,527 2445,535 2463,542 2473,547 2484,552 2496,557 2507,562 2518,568 2527,573 2536,579 2543,584 2549,590 2555,596 2558,602 2558,607 2558,615 2556,621 2551,626 2546,631 2539,636 2531,639 2524,642 2515,645 2506,646 2497,648 2489,649 2481,649 2474,649 2467,648 2460,647 2453,646 2445,645 2439,642 2432,640 2425,637 2420,633 2415,630 2411,625 2408,620 2406,617 2403,613 2399,611 2395,609 2391,607 2387,607 L 2325,607 C 2319,607 2314,610 2310,615 2306,619 2305,624 2306,630 2309,648 2315,665 2326,680 2336,695 2349,708 2367,719 2382,729 2399,737 2419,742 2438,747 2459,750 2481,750 2506,750 2530,747 2552,739 2574,732 2593,722 2609,710 2625,697 2637,682 2646,665 2656,647 2660,628 2660,607 2660,585 2655,566 2645,550 2636,533 2623,519 2608,507 2593,494 2576,484 2557,474 2539,466 2521,457 2504,449 L 2504,449 Z"/>
       </g>
      </g>
     </g>
    </g>
   </g>
  </g>
 </g>
</svg>